<?xml version="1.0" encoding="UTF-8"?>
<svg width="1071px" height="446px" viewBox="0 0 1071 446" version="1.1" xmlns="http://www.w3.org/2000/svg" xmlns:xlink="http://www.w3.org/1999/xlink">
    <!-- Generator: Sketch 52.5 (67469) - http://www.bohemiancoding.com/sketch -->
    <title>Group 6</title>
    <desc>Created with Sketch.</desc>
    <g id="Page-1" stroke="none" stroke-width="1" fill="none" fill-rule="evenodd">
        <g id="Group-6" transform="translate(-14.000000, -23.000000)">
            <rect id="Rectangle" stroke="#979797" fill="#D8D8D8" opacity="0" x="0.5" y="0.5" width="1102" height="488"></rect>
            <polygon id="Path" fill="#000000" opacity="0.8" points="62.8668731 172 22 172 22 23 63.0712074 23 63.0712074 82.0221607 113.133127 82.0221607 113.133127 23 154 23 154 172 113.133127 172 113.133127 110.914127 62.8668731 110.914127"></polygon>
            <polygon id="Path" fill="#000000" opacity="0.8" points="287 172 174 172 174 23 287 23 287 51.8919668 215.090909 51.8919668 215.090909 82.6412742 281.247273 82.6412742 281.247273 111.533241 215.090909 111.533241 215.090909 143.108033 287 143.108033"></polygon>
            <polygon id="Path" fill="#000000" opacity="0.8" points="355.727273 172 355.727273 117.518006 299 23 346.683794 23 379.158103 85.5304709 412.660079 23 455 23 396.833992 117.518006 396.833992 172"></polygon>
            <path d="M514.522339,29.8696809 L497.298265,84.7433511 L489.643121,84.7433511 L474,24.2566489 L479.741358,24.2566489 L493.720317,79.2978723 L493.886733,79.2978723 L511.44364,24.2566489 L518.017079,24.2566489 L536.322858,79.2978723 L536.489274,79.2978723 L550.385025,24.2566489 L555.627135,24.2566489 L539.817598,84.7433511 L532.412078,84.7433511 L514.688755,29.8696809 L514.522339,29.8696809 Z M570.022134,84.7433511 L564.613608,84.7433511 L564.613608,24.2566489 L570.022134,24.2566489 L570.022134,50.8138298 L602.806121,50.8138298 L602.806121,24.2566489 L608.214647,24.2566489 L608.214647,84.7433511 L602.806121,84.7433511 L602.806121,55.8404255 L570.022134,55.8404255 L570.022134,84.7433511 Z M639.251264,84.7433511 L639.251264,58.6050532 L617.117912,24.2566489 L624.024184,24.2566489 L642.413171,53.4946809 L660.802159,24.2566489 L666.626725,24.2566489 L644.65979,58.4375 L644.65979,84.7433511 L639.251264,84.7433511 Z M711.059844,84.7433511 L710.976636,29.2832447 L691.589152,29.2832447 L691.589152,24.2566489 L735.523022,24.2566489 L735.523022,29.2832447 L716.46837,29.2832447 L716.385162,84.7433511 L711.059844,84.7433511 Z M750.334062,84.7433511 L744.925536,84.7433511 L744.925536,24.2566489 L750.334062,24.2566489 L750.334062,50.8138298 L783.118049,50.8138298 L783.118049,24.2566489 L788.526575,24.2566489 L788.526575,84.7433511 L783.118049,84.7433511 L783.118049,55.8404255 L750.334062,55.8404255 L750.334062,84.7433511 Z M842.195792,84.7433511 L805.2514,84.7433511 L805.2514,24.2566489 L840.94767,24.2566489 L840.94767,29.2832447 L810.659926,29.2832447 L810.659926,50.981383 L839.782757,50.981383 L839.782757,56.0079787 L810.659926,56.0079787 L810.659926,79.7167553 L842.195792,79.7167553 L842.195792,84.7433511 Z M884.04946,84.7433511 L878.640935,84.7433511 L878.640935,24.2566489 L912.589835,24.2566489 L912.589835,29.2832447 L884.04946,29.2832447 L884.04946,50.6462766 L911.591338,50.6462766 L911.591338,55.6728723 L884.04946,55.6728723 L884.04946,84.7433511 Z M925.071048,24.2566489 L930.479574,24.2566489 L930.479574,63.3803191 C930.895614,74.3550532 937.136221,80.9734043 947.037983,80.9734043 C956.939746,80.9734043 963.180353,74.3550532 963.596393,63.3803191 L963.596393,24.2566489 L969.004919,24.2566489 L969.004919,63.4640957 C968.838503,76.4494681 961.599399,86 947.037983,86 C932.476568,86 925.237464,76.4494681 925.071048,63.4640957 L925.071048,24.2566489 Z M1027.99945,38.4148936 L1022.17489,38.4148936 C1021.17639,31.0425532 1014.85258,28.0265957 1008.02951,28.0265957 C992.636016,28.0265957 987.976363,42.1010638 987.976363,54.5 C987.976363,66.8989362 992.636016,80.9734043 1008.02951,80.9734043 C1014.68616,80.9734043 1021.34281,77.6223404 1022.84055,70.0824468 L1028.66512,70.0824468 C1026.91775,80.2194149 1017.68165,86 1008.02951,86 C989.806941,86 982.151797,71.2553191 982.151797,54.5 C982.151797,37.912234 989.890149,23 1008.02951,23 C1017.84807,23 1027.16737,27.5239362 1027.99945,38.4148936 Z M1046.72127,84.7433511 L1041.39596,84.7433511 L1041.39596,24.2566489 L1046.72127,24.2566489 L1046.80448,50.8976064 L1073.68069,24.2566489 L1080.50376,24.2566489 L1052.79546,51.5678191 L1083,84.7433511 L1075.59448,84.7433511 L1046.80448,53.1595745 L1046.72127,84.7433511 Z" id="WHY-THE-FUCK" fill="#000000" opacity="0.239520089"></path>
            <path d="M485.295457,142.893617 L508.911732,142.893617 L497.216053,112.585106 L485.295457,142.893617 Z M478.023144,161.882979 L473,161.882979 L494.442078,108.117021 L500.139973,108.117021 L521.731996,161.882979 L516.408962,161.882979 L510.636095,147.361702 L483.721039,147.361702 L478.023144,161.882979 Z M534.927121,131.797872 L545.34827,131.797872 C552.245722,131.797872 560.792564,131.351064 560.792564,122.191489 C560.792564,111.840426 551.046165,112.585106 545.873076,112.585106 L534.927121,112.585106 L534.927121,131.797872 Z M534.927121,136.265957 L534.927121,161.882979 L530.053921,161.882979 L530.053921,108.117021 L547.747384,108.117021 C552.470639,108.117021 556.369199,108.414894 560.492675,110.946809 C564.24129,113.180851 566.040625,117.053191 566.040625,122.191489 C566.040625,128 561.917149,132.170213 555.619476,133.734043 L555.619476,133.882979 C562.516927,135 564.016373,139.617021 564.691124,145.87234 C565.665764,154.585106 565.365875,158.606383 567.540071,161.882979 L561.917149,161.882979 C560.64262,158.308511 560.342731,154.510638 560.042841,150.712766 C558.918257,138.425532 558.168534,136.265957 548.347162,136.265957 L534.927121,136.265957 Z M613.273175,161.882979 L579.985473,161.882979 L579.985473,108.117021 L612.14859,108.117021 L612.14859,112.585106 L584.858673,112.585106 L584.858673,131.87234 L611.098978,131.87234 L611.098978,136.340426 L584.858673,136.340426 L584.858673,157.414894 L613.273175,157.414894 L613.273175,161.882979 Z M659.531085,161.882979 L659.531085,138.648936 L639.588453,108.117021 L645.811154,108.117021 L662.380032,134.106383 L678.948911,108.117021 L684.196972,108.117021 L664.404284,138.5 L664.404284,161.882979 L659.531085,161.882979 Z M695.067955,135 C695.067955,146.765957 700.465961,158.531915 713.960975,158.531915 C727.455989,158.531915 732.853995,146.765957 732.853995,135 C732.853995,123.234043 727.455989,111.468085 713.960975,111.468085 C700.465961,111.468085 695.067955,123.234043 695.067955,135 Z M738.102056,135 C738.102056,151.755319 729.480241,163 713.960975,163 C698.441709,163 689.819894,151.755319 689.819894,135 C689.819894,118.244681 698.441709,107 713.960975,107 C729.480241,107 738.102056,118.244681 738.102056,135 Z M750.397513,108.117021 L755.270713,108.117021 L755.270713,142.893617 C755.645574,152.648936 761.268497,158.531915 770.190201,158.531915 C779.111904,158.531915 784.734827,152.648936 785.109689,142.893617 L785.109689,108.117021 L789.982888,108.117021 L789.982888,142.968085 C789.832943,154.510638 783.310353,163 770.190201,163 C757.070048,163 750.547458,154.510638 750.397513,142.968085 L750.397513,108.117021 Z M859.557183,147.734043 C859.557183,159.425532 849.435923,163 838.564939,163 C829.943124,163 822.670811,156.744681 822.445894,147.882979 L827.693955,147.882979 C827.8439,156.148936 833.991629,158.531915 841.263942,158.531915 C847.336698,158.531915 854.309122,155.031915 854.309122,148.180851 C854.309122,142.819149 850.410563,140.287234 845.837252,138.797872 C837.065493,135.893617 823.720423,133.138298 823.720423,121.521277 C823.720423,112.138298 832.41721,107 840.964053,107 C848.086421,107 857.382987,109.457447 858.582543,119.808511 L853.334482,119.808511 C853.184538,113.180851 847.111781,111.468085 841.563831,111.468085 C835.940909,111.468085 828.968485,114.297872 828.968485,120.851064 C828.968485,136.117021 859.557183,129.191489 859.557183,147.734043 Z M876.875785,142.893617 L900.49206,142.893617 L888.796381,112.585106 L876.875785,142.893617 Z M869.603472,161.882979 L864.580327,161.882979 L886.022406,108.117021 L891.7203,108.117021 L913.312323,161.882979 L907.98929,161.882979 L902.216423,147.361702 L875.301366,147.361702 L869.603472,161.882979 Z M934.454512,161.882979 L934.454512,138.648936 L914.51188,108.117021 L920.734581,108.117021 L937.303459,134.106383 L953.872338,108.117021 L959.120399,108.117021 L939.327711,138.5 L939.327711,161.882979 L934.454512,161.882979 Z M972.615413,161.882979 L967.742213,161.882979 L967.742213,107.893617 L972.615413,107.893617 L972.615413,161.882979 Z M987.459929,161.882979 L987.459929,108.117021 L993.007879,108.117021 L1022.84685,155.404255 L1022.9968,155.404255 L1022.9968,108.117021 L1027.87,108.117021 L1027.87,161.882979 L1021.72227,161.882979 L992.483073,115.414894 L992.333128,115.414894 L992.333128,161.882979 L987.459929,161.882979 Z M1063.55681,134.478723 L1082,134.478723 L1082,159.648936 C1075.47741,162.180851 1069.5546,163 1062.58217,163 C1047.81263,163 1039.49071,151.531915 1039.49071,135 C1039.49071,121.148936 1046.91296,107 1062.58217,107 C1071.57885,107 1080.80044,111.840426 1081.62514,121.37234 L1076.07719,121.37234 C1075.10255,114.521277 1069.02979,111.468085 1062.58217,111.468085 C1049.61197,111.468085 1044.73877,123.829787 1044.73877,135 C1044.73877,148.702128 1050.51163,158.531915 1065.13123,158.531915 C1069.17974,158.531915 1073.30321,157.414894 1077.1268,156.297872 L1077.1268,138.946809 L1063.55681,138.946809 L1063.55681,134.478723 Z" id="ARE-YOU-SAYING" fill="#000000" opacity="0.239520089"></path>
            <path d="M209.420331,411.848979 L209.420331,362.716835 L155.116383,362.716835 L155.116383,310.998789 L283.303254,310.998789 L283.303254,453.59283 C223.458086,462.458781 212.006233,468 147.72809,468 C64.6098021,465.414098 14,412.587808 14,329.100105 C14,245.612402 64.6098021,192.786112 147.72809,190.20021 C212.375648,188.353137 280.347937,197.957917 281.456181,275.534986 L207.573258,275.534986 C203.879112,249.675963 183.561308,241.918256 159.179943,241.918256 C109.30897,241.918256 91.577069,285.878595 91.577069,329.100105 C91.577069,381.55698 117.805507,416.281954 171.001211,416.281954 C184.669552,416.281954 198.337892,414.065466 209.420331,411.848979 Z" id="Path" fill="#000000" opacity="0.8"></path>
            <path d="M487.013161,196 L560.896084,196 L560.896084,364.822479 C560.157255,439.074816 500.681502,468.258571 433.448042,468.258571 C366.214582,468.258571 306.738829,439.074816 306,364.822479 L306,196 L379.882923,196 L379.882923,361.128333 C380.991167,395.114477 398.723068,416.540525 433.448042,416.540525 C468.173016,416.540525 485.904917,395.114477 487.013161,361.128333 L487.013161,196 Z" id="Path" fill="#000000" opacity="0.8"></path>
            <polygon id="Path" fill="#000000" opacity="0.8" points="682.958434 462.717351 682.958434 365.191893 581 196 666.70419 196 725.0717 307.932628 785.286282 196 861.385692 196 756.841356 365.191893 756.841356 462.717351"></polygon>
            <path d="M1075.71233,273.857117 L1001.82941,273.857117 C1002.19882,263.513508 998.87409,255.755801 992.224626,250.214582 C985.944578,244.673363 976.339798,241.718046 963.779701,241.718046 C946.786629,241.718046 932.010044,252.800484 932.010044,266.099411 C932.010044,285.678385 955.65258,291.958434 975.231554,297.130238 C1019.93072,308.582091 1084.94769,313.015067 1084.94769,385.050916 C1084.94769,441.201938 1029.5355,467.79979 967.843262,467.79979 C905.781607,467.79979 851.108244,449.698474 850,377.293209 L923.882923,377.293209 C923.513508,402.413403 941.984239,416.081744 968.582091,416.081744 C985.575163,416.081744 1007.37063,407.215793 1007.37063,389.483892 C1007.37063,353.281259 952.697263,361.038966 894.699168,335.549358 C867.731901,323.72809 854.432975,299.346726 854.432975,270.532386 C857.388292,207.362487 912.800484,190 968.582091,190 C1023.62487,190 1080.1453,209.578975 1075.71233,273.857117 Z" id="Path" fill="#000000" opacity="0.8"></path>
        </g>
    </g>
</svg>