<?xml version="1.0" encoding="UTF-8"?>
<svg width="1071px" height="458px" viewBox="0 0 1071 458" version="1.1" xmlns="http://www.w3.org/2000/svg" xmlns:xlink="http://www.w3.org/1999/xlink">
    <!-- Generator: Sketch 52.5 (67469) - http://www.bohemiancoding.com/sketch -->
    <title>Group</title>
    <desc>Created with Sketch.</desc>
    <g id="App" stroke="none" stroke-width="1" fill="none" fill-rule="evenodd">
        <g id="Artboard-Copy" transform="translate(-275.000000, -169.000000)" fill="#FFFFFF">
            <g id="Group" transform="translate(275.000000, 169.000000)">
                <polygon id="Path-Copy" opacity="0.9" points="48.8668731 149 8 149 8 0 49.0712074 0 49.0712074 59.0221607 99.1331269 59.0221607 99.1331269 0 140 0 140 149 99.1331269 149 99.1331269 87.9141274 48.8668731 87.9141274"></polygon>
                <polygon id="Path-Copy-2" opacity="0.9" points="273 149 160 149 160 0 273 0 273 28.8919668 201.090909 28.8919668 201.090909 59.6412742 267.247273 59.6412742 267.247273 88.533241 201.090909 88.533241 201.090909 120.108033 273 120.108033"></polygon>
                <polygon id="Path-Copy-3" opacity="0.9" points="341.727273 149 341.727273 94.5180055 285 0 332.683794 0 365.158103 62.5304709 398.660079 0 441 0 382.833992 94.5180055 382.833992 149"></polygon>
                <path d="M500.522339,6.86968085 L483.298265,61.7433511 L475.643121,61.7433511 L460,1.25664894 L465.741358,1.25664894 L479.720317,56.2978723 L479.886733,56.2978723 L497.44364,1.25664894 L504.017079,1.25664894 L522.322858,56.2978723 L522.489274,56.2978723 L536.385025,1.25664894 L541.627135,1.25664894 L525.817598,61.7433511 L518.412078,61.7433511 L500.688755,6.86968085 L500.522339,6.86968085 Z M556.022134,61.7433511 L550.613608,61.7433511 L550.613608,1.25664894 L556.022134,1.25664894 L556.022134,27.8138298 L588.806121,27.8138298 L588.806121,1.25664894 L594.214647,1.25664894 L594.214647,61.7433511 L588.806121,61.7433511 L588.806121,32.8404255 L556.022134,32.8404255 L556.022134,61.7433511 Z M625.251264,61.7433511 L625.251264,35.6050532 L603.117912,1.25664894 L610.024184,1.25664894 L628.413171,30.4946809 L646.802159,1.25664894 L652.626725,1.25664894 L630.65979,35.4375 L630.65979,61.7433511 L625.251264,61.7433511 Z M697.059844,61.7433511 L696.976636,6.28324468 L677.589152,6.28324468 L677.589152,1.25664894 L721.523022,1.25664894 L721.523022,6.28324468 L702.46837,6.28324468 L702.385162,61.7433511 L697.059844,61.7433511 Z M736.334062,61.7433511 L730.925536,61.7433511 L730.925536,1.25664894 L736.334062,1.25664894 L736.334062,27.8138298 L769.118049,27.8138298 L769.118049,1.25664894 L774.526575,1.25664894 L774.526575,61.7433511 L769.118049,61.7433511 L769.118049,32.8404255 L736.334062,32.8404255 L736.334062,61.7433511 Z M828.195792,61.7433511 L791.2514,61.7433511 L791.2514,1.25664894 L826.94767,1.25664894 L826.94767,6.28324468 L796.659926,6.28324468 L796.659926,27.981383 L825.782757,27.981383 L825.782757,33.0079787 L796.659926,33.0079787 L796.659926,56.7167553 L828.195792,56.7167553 L828.195792,61.7433511 Z M870.04946,61.7433511 L864.640935,61.7433511 L864.640935,1.25664894 L898.589835,1.25664894 L898.589835,6.28324468 L870.04946,6.28324468 L870.04946,27.6462766 L897.591338,27.6462766 L897.591338,32.6728723 L870.04946,32.6728723 L870.04946,61.7433511 Z M911.071048,1.25664894 L916.479574,1.25664894 L916.479574,40.3803191 C916.895614,51.3550532 923.136221,57.9734043 933.037983,57.9734043 C942.939746,57.9734043 949.180353,51.3550532 949.596393,40.3803191 L949.596393,1.25664894 L955.004919,1.25664894 L955.004919,40.4640957 C954.838503,53.4494681 947.599399,63 933.037983,63 C918.476568,63 911.237464,53.4494681 911.071048,40.4640957 L911.071048,1.25664894 Z M1013.99945,15.4148936 L1008.17489,15.4148936 C1007.17639,8.04255319 1000.85258,5.02659574 994.029512,5.02659574 C978.636016,5.02659574 973.976363,19.1010638 973.976363,31.5 C973.976363,43.8989362 978.636016,57.9734043 994.029512,57.9734043 C1000.68616,57.9734043 1007.34281,54.6223404 1008.84055,47.0824468 L1014.66512,47.0824468 C1012.91775,57.2194149 1003.68165,63 994.029512,63 C975.806941,63 968.151797,48.2553191 968.151797,31.5 C968.151797,14.912234 975.890149,0 994.029512,0 C1003.84807,0 1013.16737,4.52393617 1013.99945,15.4148936 Z M1032.72127,61.7433511 L1027.39596,61.7433511 L1027.39596,1.25664894 L1032.72127,1.25664894 L1032.80448,27.8976064 L1059.68069,1.25664894 L1066.50376,1.25664894 L1038.79546,28.5678191 L1069,61.7433511 L1061.59448,61.7433511 L1032.80448,30.1595745 L1032.72127,61.7433511 Z" id="WHY-THE-FUCK-Copy-2" opacity="0.497146577"></path>
                <path d="M471.295457,128.893617 L494.911732,128.893617 L483.216053,98.5851064 L471.295457,128.893617 Z M464.023144,147.882979 L459,147.882979 L480.442078,94.1170213 L486.139973,94.1170213 L507.731996,147.882979 L502.408962,147.882979 L496.636095,133.361702 L469.721039,133.361702 L464.023144,147.882979 Z M520.927121,117.797872 L531.34827,117.797872 C538.245722,117.797872 546.792564,117.351064 546.792564,108.191489 C546.792564,97.8404255 537.046165,98.5851064 531.873076,98.5851064 L520.927121,98.5851064 L520.927121,117.797872 Z M520.927121,122.265957 L520.927121,147.882979 L516.053921,147.882979 L516.053921,94.1170213 L533.747384,94.1170213 C538.470639,94.1170213 542.369199,94.4148936 546.492675,96.9468085 C550.24129,99.1808511 552.040625,103.053191 552.040625,108.191489 C552.040625,114 547.917149,118.170213 541.619476,119.734043 L541.619476,119.882979 C548.516927,121 550.016373,125.617021 550.691124,131.87234 C551.665764,140.585106 551.365875,144.606383 553.540071,147.882979 L547.917149,147.882979 C546.64262,144.308511 546.342731,140.510638 546.042841,136.712766 C544.918257,124.425532 544.168534,122.265957 534.347162,122.265957 L520.927121,122.265957 Z M599.273175,147.882979 L565.985473,147.882979 L565.985473,94.1170213 L598.14859,94.1170213 L598.14859,98.5851064 L570.858673,98.5851064 L570.858673,117.87234 L597.098978,117.87234 L597.098978,122.340426 L570.858673,122.340426 L570.858673,143.414894 L599.273175,143.414894 L599.273175,147.882979 Z M645.531085,147.882979 L645.531085,124.648936 L625.588453,94.1170213 L631.811154,94.1170213 L648.380032,120.106383 L664.948911,94.1170213 L670.196972,94.1170213 L650.404284,124.5 L650.404284,147.882979 L645.531085,147.882979 Z M681.067955,121 C681.067955,132.765957 686.465961,144.531915 699.960975,144.531915 C713.455989,144.531915 718.853995,132.765957 718.853995,121 C718.853995,109.234043 713.455989,97.4680851 699.960975,97.4680851 C686.465961,97.4680851 681.067955,109.234043 681.067955,121 Z M724.102056,121 C724.102056,137.755319 715.480241,149 699.960975,149 C684.441709,149 675.819894,137.755319 675.819894,121 C675.819894,104.244681 684.441709,93 699.960975,93 C715.480241,93 724.102056,104.244681 724.102056,121 Z M736.397513,94.1170213 L741.270713,94.1170213 L741.270713,128.893617 C741.645574,138.648936 747.268497,144.531915 756.190201,144.531915 C765.111904,144.531915 770.734827,138.648936 771.109689,128.893617 L771.109689,94.1170213 L775.982888,94.1170213 L775.982888,128.968085 C775.832943,140.510638 769.310353,149 756.190201,149 C743.070048,149 736.547458,140.510638 736.397513,128.968085 L736.397513,94.1170213 Z M845.557183,133.734043 C845.557183,145.425532 835.435923,149 824.564939,149 C815.943124,149 808.670811,142.744681 808.445894,133.882979 L813.693955,133.882979 C813.8439,142.148936 819.991629,144.531915 827.263942,144.531915 C833.336698,144.531915 840.309122,141.031915 840.309122,134.180851 C840.309122,128.819149 836.410563,126.287234 831.837252,124.797872 C823.065493,121.893617 809.720423,119.138298 809.720423,107.521277 C809.720423,98.1382979 818.41721,93 826.964053,93 C834.086421,93 843.382987,95.4574468 844.582543,105.808511 L839.334482,105.808511 C839.184538,99.1808511 833.111781,97.4680851 827.563831,97.4680851 C821.940909,97.4680851 814.968485,100.297872 814.968485,106.851064 C814.968485,122.117021 845.557183,115.191489 845.557183,133.734043 Z M862.875785,128.893617 L886.49206,128.893617 L874.796381,98.5851064 L862.875785,128.893617 Z M855.603472,147.882979 L850.580327,147.882979 L872.022406,94.1170213 L877.7203,94.1170213 L899.312323,147.882979 L893.98929,147.882979 L888.216423,133.361702 L861.301366,133.361702 L855.603472,147.882979 Z M920.454512,147.882979 L920.454512,124.648936 L900.51188,94.1170213 L906.734581,94.1170213 L923.303459,120.106383 L939.872338,94.1170213 L945.120399,94.1170213 L925.327711,124.5 L925.327711,147.882979 L920.454512,147.882979 Z M958.615413,147.882979 L953.742213,147.882979 L953.742213,93.893617 L958.615413,93.893617 L958.615413,147.882979 Z M973.459929,147.882979 L973.459929,94.1170213 L979.007879,94.1170213 L1008.84685,141.404255 L1008.9968,141.404255 L1008.9968,94.1170213 L1013.87,94.1170213 L1013.87,147.882979 L1007.72227,147.882979 L978.483073,101.414894 L978.333128,101.414894 L978.333128,147.882979 L973.459929,147.882979 Z M1049.55681,120.478723 L1068,120.478723 L1068,145.648936 C1061.47741,148.180851 1055.5546,149 1048.58217,149 C1033.81263,149 1025.49071,137.531915 1025.49071,121 C1025.49071,107.148936 1032.91296,93 1048.58217,93 C1057.57885,93 1066.80044,97.8404255 1067.62514,107.37234 L1062.07719,107.37234 C1061.10255,100.521277 1055.02979,97.4680851 1048.58217,97.4680851 C1035.61197,97.4680851 1030.73877,109.829787 1030.73877,121 C1030.73877,134.702128 1036.51163,144.531915 1051.13123,144.531915 C1055.17974,144.531915 1059.30321,143.414894 1063.1268,142.297872 L1063.1268,124.946809 L1049.55681,124.946809 L1049.55681,120.478723 Z" id="ARE-YOU-SAYING-Copy-2" opacity="0.497146577"></path>
                <path d="M195.420331,400.848979 L195.420331,351.716835 L141.116383,351.716835 L141.116383,299.998789 L269.303254,299.998789 L269.303254,442.59283 C209.458086,451.458781 198.006233,457 133.72809,457 C50.6098021,454.414098 2.27373675e-13,401.587808 2.27373675e-13,318.100105 C2.27373675e-13,234.612402 50.6098021,181.786112 133.72809,179.20021 C198.375648,177.353137 266.347937,186.957917 267.456181,264.534986 L193.573258,264.534986 C189.879112,238.675963 169.561308,230.918256 145.179943,230.918256 C95.3089705,230.918256 77.577069,274.878595 77.577069,318.100105 C77.577069,370.55698 103.805507,405.281954 157.001211,405.281954 C170.669552,405.281954 184.337892,403.065466 195.420331,400.848979 Z" id="Path-Copy-4" opacity="0.900655692"></path>
                <path d="M473.013161,185 L546.896084,185 L546.896084,353.822479 C546.157255,428.074816 486.681502,457.258571 419.448042,457.258571 C352.214582,457.258571 292.738829,428.074816 292,353.822479 L292,185 L365.882923,185 L365.882923,350.128333 C366.991167,384.114477 384.723068,405.540525 419.448042,405.540525 C454.173016,405.540525 471.904917,384.114477 473.013161,350.128333 L473.013161,185 Z" id="Path-Copy-5" opacity="0.900655692"></path>
                <polygon id="Path-Copy-6" opacity="0.900655692" points="668.958434 451.717351 668.958434 354.191893 567 185 652.70419 185 711.0717 296.932628 771.286282 185 847.385692 185 742.841356 354.191893 742.841356 451.717351"></polygon>
                <path d="M1061.71233,262.857117 L987.829406,262.857117 C988.198821,252.513508 984.87409,244.755801 978.224626,239.214582 C971.944578,233.673363 962.339798,230.718046 949.779701,230.718046 C932.786629,230.718046 918.010044,241.800484 918.010044,255.099411 C918.010044,274.678385 941.65258,280.958434 961.231554,286.130238 C1005.93072,297.582091 1070.94769,302.015067 1070.94769,374.050916 C1070.94769,430.201938 1015.5355,456.79979 953.843262,456.79979 C891.781607,456.79979 837.108244,438.698474 836,366.293209 L909.882923,366.293209 C909.513508,391.413403 927.984239,405.081744 954.582091,405.081744 C971.575163,405.081744 993.370626,396.215793 993.370626,378.483892 C993.370626,342.281259 938.697263,350.038966 880.699168,324.549358 C853.731901,312.72809 840.432975,288.346726 840.432975,259.532386 C843.388292,196.362487 898.800484,179 954.582091,179 C1009.62487,179 1066.1453,198.578975 1061.71233,262.857117 Z" id="Path-Copy-7" opacity="0.900655692"></path>
            </g>
        </g>
    </g>
</svg>